<svg xmlns="http://www.w3.org/2000/svg" xmlns:xlink="http://www.w3.org/1999/xlink" version="1.1" x="0px" y="0px" viewBox="-17.5 -17.5 100 125" enable-background="new -17.5 -17.5 100 100" xml:space="preserve"><path d="M-4.867,51.553h-3.5h-8.011v12.604h11.511v-0.002h35.846l6.913-6.302l-6.913-6.301H-4.867z M25.564,55.053v1.051  l-30.432,0.004v-1.055H25.564z M-12.878,55.053h4.511v5.604h-4.511V55.053z M-4.867,59.607l30.432-0.004v1.052H-4.867V59.607z   M29.623,60.655h-0.559v-5.603h0.559l3.073,2.801L29.623,60.655z"/><path d="M18.307,10.028c0-0.397-0.025-0.791-0.059-1.181l-0.138-1.6H9.426v-9.793L8.075-2.861C7.072-3.096,6.059-3.215,5.064-3.215  c-7.303,0-13.244,5.941-13.244,13.243c0,7.301,5.941,13.241,13.244,13.241C12.366,23.27,18.307,17.33,18.307,10.028z M-4.68,10.028  c0-5.373,4.371-9.743,9.744-9.743c0.285,0,0.573,0.014,0.862,0.041v10.422h8.855c-0.37,5.037-4.586,9.021-9.717,9.021  C-0.309,19.77-4.68,15.399-4.68,10.028z"/><path d="M11.788-8.162h-1.75V6.832h14.991v-1.75C25.029-2.221,19.089-8.162,11.788-8.162z M13.538,3.332v-7.836  c3.971,0.724,7.111,3.864,7.834,7.836H13.538z"/><path d="M60.472-6.325H29.41v7.389h31.062V-6.325z M56.972-2.437H32.91v-0.389h24.062V-2.437z"/><path d="M-8.18,42.137h9.762V32.27H-8.18V42.137z M-4.68,35.77h2.762v2.867H-4.68V35.77z"/><path d="M13.4,26.841H3.639v15.296H13.4V26.841z M9.9,38.637H7.139v-8.296H9.9V38.637z"/><path d="M25.221,23.293H15.46v18.844h9.761V23.293z M21.721,38.637H18.96V26.793h2.761V38.637z"/><path d="M37.044,42.137V26.841h-9.763v15.296H37.044z M30.781,30.341h2.763v8.296h-2.763V30.341z"/><path d="M68.88,24.387v-36.523h-85.258v59.922h29.077v-3.5h-25.577V-8.637H65.38v33.023H39.099v19.898H21.426v3.5h17.672v29.352  h42.279v-52.75H68.88z M77.878,73.637H42.599v-45.75h35.279V73.637z"/><path d="M60.472,11.041V3.649H35.725v7.392H60.472z M39.225,7.149h17.747v0.392H39.225V7.149z"/><path d="M24.5,21.019h35.971v-7.393H24.5V21.019z M28,17.126h28.971v0.393H28V17.126z"/><path d="M76.842,28.808H43.635v11.668h33.207V28.808z M73.342,36.976H47.135v-4.668h26.207V36.976z"/><path d="M53.825,41.542h-10.19v9.68h10.19V41.542z M50.325,47.722h-3.19v-2.68h3.19V47.722z"/><path d="M66.651,51.222h10.19v-9.68h-10.19V51.222z M70.151,45.042h3.19v2.68h-3.19V45.042z"/><path d="M55.143,51.222h10.192v-9.68H55.143V51.222z M58.643,45.042h3.192v2.68h-3.192V45.042z"/><path d="M53.825,52.29h-10.19v9.68h10.19V52.29z M50.325,58.47h-3.19v-2.68h3.19V58.47z"/><path d="M66.651,72.716h10.19V52.29h-10.19V72.716z M70.151,55.79h3.19v13.426h-3.19V55.79z"/><path d="M55.143,61.97h10.192v-9.68H55.143V61.97z M58.643,55.79h3.192v2.68h-3.192V55.79z"/><path d="M53.825,63.036h-10.19v9.68h10.19V63.036z M50.325,69.216h-3.19v-2.68h3.19V69.216z"/><path d="M55.143,72.716h10.192v-9.68H55.143V72.716z M58.643,66.536h3.192v2.68h-3.192V66.536z"/><rect x="15.972" y="44.285" width="3.273" height="3.5"/><text x="-17.5" y="97.5" fill="#000000" font-size="5px" font-weight="bold" font-family="'Helvetica Neue', Helvetica, Arial-Unicode, Arial, Sans-serif">Created by Vectplus</text><text x="-17.5" y="102.5" fill="#000000" font-size="5px" font-weight="bold" font-family="'Helvetica Neue', Helvetica, Arial-Unicode, Arial, Sans-serif">from the Noun Project</text></svg>